<svg xmlns="http://www.w3.org/2000/svg" width="150" height="184" viewBox="0 0 39.688 48.683"><path style="fill:#fcf4e3;fill-opacity:1;stroke:#000;stroke-width:.213716;stroke-linecap:butt;stroke-linejoin:miter;stroke-opacity:1" d="m26.209 48.418.354-.42.166.015.245.18.23-.043.13-.05-.071-.13-.13-.072.08-.072h.086l-.015-.123.13-.036v.253l.094-.008.26-.714.216-.065-.007-.325.116.065.021-.433.368-.794.044-.05-.022-.253-.476-.022-.03-.144.26-.022.087-.065.101-.014.008-.087-.224.015v-.166l.245.043.101.195.015.137h.18l.173-.238-.028-.152-.152-.029-.08-.086.015-.21.065-.007.014.188.16.043.201-.094.16-.39.208-.65.07-.374-.169-.062-.127.041h-.092l-.01-.102-.077-.04-.02-.103.117-.046.082.051.04.072.123.025.173.02.15-.621.267-.462.022-.123-.065-.08v-.18l.087-.036.028.166-.014.08.108.057.13-.115.246-.174.245-.144.058-.202-.058-.245.014-.102.101-.014.16-.26.014-.245-.044-.116.376-.317-.044-.16-.173.102-.173.014v-.072l.188-.086-.03-.053-.235-.005.015-.123.084-.072.021-.166h.123l-.029-.281-.101-.087.043-.18.246-.318.397-.368.541-.296.36-.08.244.042.205.122.163.04.194-.173.214-.275.255-.143.276-.204.133-.133-.082-.184-.112-.153-.01-.092.163-.194.214-.143.041.164.102.061v.123l.102.112.194-.051.03-.082.103-.02.01-.327-.186-.07-.159-.05-.036-.16-.014-.418-.065-.123-.015-.202-.151-.058-.008-.144-.1-.05.086-.058.13.072-.029.072.094.072.08.31.245-.064.007-.289-.03-.282.116-.122.065.151-.086.152-.007.224.05.08.188-.008.08.029.042.05-.108.087-.144.058-.173.036-.058.18-.015.21.073.064.115.116.13-.072-.087-.094h-.091v-.087l.26-.015-.01-.066.46-.026.02-.082.234-.035-.122-.138-.056-.163-.358-.046-.081-.041.26-.235.393.097.087-.071.04-.21.353.143.107.01.066-.117.5-.551.582-.592.01-.332v-.133l.149-.015-.026-.107-.077-.005-.015-.23-.25-.265-.255-.378-.858-1.01-1.401-1.782V12.091l-.043-.043-.015-.823 1.949-2.079 2.627-3.656-.01-.112-.066-.043-.112.007-.054.018-.007.062.004.04-.09.003-.116.014-.01-.04-.023-.068-.093-.014-.087-.018-.065-.072-.202-.008H38.5l-.057.073-.098.025-.13-.007-.04-.069-.126-.04h-.08l-.075.033.004.065-.336.036-.015.108-.31.025-.072.127h-1.092l-.235-.143-.255-.153-.245-.296-.133-.245-.24-.178-.244-.051-.097-.026-.077-.265-.536-.414-.061-.02-.082.03-.71.327-.8.414-.2.02-.204.189-.877.347-.557.22-1.194.581-.153.398-.133.408-.96.92-.122.397-.122.164-.153-.092-.133-.276h-.602l-.153-.143-.205.02-.04.133h-.347l-.296-.163-.43-.153-.632.112-.47-.122-.459-.133-.163-.194-.174-.194-.071.133-.051.102-.215-.041-.234-.092-.041-.224-.327.03-.05.215-.215.112h-.531l-.623-.092-.418.01-.163-.071-.184-.123-.133-.275-.286-.225-4.154-2.674-.259-.272-.262-.153-.408-.148-.51-.162-.623-.03-.357.01-.168-.09-.31-.001c-.133.047-.07.108-.307.155l-1.002-.034v-.143h-.367l-.04.143-.736-.03-.439-.358-.02-.561-.684-.02-.051-.338-.408.062-.153.265.04.204-.183-.061-.225-.255-.347-.48.133-.408.163-.296-.133-.174-.745-.061.153-.163.01-.194-.102-.113-.224-.02-.46.337-.07.102-.031-.03-.092-.154-.204-.01-.082.123-.796.326-2.42.929-.877.51-.674.715-.52.51-.807.725-.01.082.184-.01.04.102.113.03.02.47.133-.041-.041.357-.112.01.04.164.082-.031.041.123H.99l.031.183H.837l-.04.143.06.245.297-.01.071-.072.01-.102.194.01.02.195-.234.03v.357l.265.031.113-.01.02-.133.153.235.02.276.184-.031.072-.082.173-.03.041.132.04.01.225.092.113.123-.01.255-.02.306-.123.062-.153.142-.072.154.04.357.103.265.122.092v.857l.205.092.306.072.102.153v.184l.092.132.05.46.378.418.103-.03.102-.062.234.174.123.53.143.562.153.122.265-.04.02.367.093.082.102.153-.102.194-.194.071-.031.164.061.347.48 1 .02.112-.122.235-.04.306.173.204.081.164-.122.173-.02.266.05.826-.194.307-.183.112-.184.102-.051.337-.02.173-.286.205-.041.163.01.224.143.154-.03.163-.092.173-.194.01-.256-.01-.194.041-.06.194-.113.02h-.184l-.061.123.01.225-.367-.031-.102.02-.062.205-.03.193v.399l-.184.265-.173.255-.02.163-.205.062-.174.092-.122-.02.061.316-.133.142-.091.205-.245.03-.225.113-.163.142-.03.194-.011.388-.204.164.05.214.072.194-.153.112-.337.306-.03.174.02.398v.245l-.194-.02-.071.081.061.255.194.062.04.47.225.183.174-.01.122-.164.143-.03.03.132-.01.113-.193.05-.082.195.112.143.307.071.122-.01.051.133.235.091.04.409.062.02.01.255.03.102h.123l.123-.03-.02-.143.295-.286.092-.071-.03-.399-.164-.06v-.072l.378-.051.245.061.224-.02.092-.154h.276l.173-.132.133-.01.061-.164h.245l-.01.378.255.122.153.174.164.306-.102.03-.082-.08-.184-.032-.092.031-.01.204-.255.102-.143.01-.102-.081-.286.02-.04-.112-.052-.082-.163.051-.02.092h-.368l-.071.215.03.285.02.092.195.041.02.123-.255.224h-.04l-.072-.173-.02-.154-.123-.091h-.123l-.061.173-.306-.03-.194-.154-.153-.143.03-.255-.081-.06-.082.09.01.123-.071-.04-.01-.133-.154.05v.185l-.213-.02v.173l.224.133h.092l-.04.357-.307.05-.214-.234.01-.235-.143-.122-.174.02-.265.072-.01.173.183.153.103.143.112-.081.184-.092.214.183-.163.082-.051.143.081.112.061-.02-.081.102-.112.082-.062.04-.02.45.122.071.072.214.173.123.062.081v.072l.173-.061.082.081.03.072-.01.102-.153.061-.102.153.061.337-.081.02L1 30.021l-.143-.051H.736l-.154.204.133.092.082.122 11.713 6.604.353.115 5.674 3.172.028.524.072.159.058.476-.029.13-.13.166-.26.144-.13.137-.043.166.022.145.202.021-.014.065-.058.036.007.101.029.073.382-.044.13.044.123.173.015.159.043.245.072.05 3.248 2.317 2.685 1.935z"/></svg>