<svg xmlns="http://www.w3.org/2000/svg" width="150" height="184" viewBox="0 0 39.688 48.683"><path style="opacity:1;fill:#000;fill-opacity:1;stroke:none;stroke-width:.915466" d="M-113.082 55.906v-6.168l-.102-.102-.033-1.924 4.56-4.864 6.146-8.553-.026-.261-.152-.101-.262.016-.126.042-.017.144.008.093-.212.008-.27.034-.025-.093-.05-.16-.22-.034-.203-.043-.152-.169-.473-.016h-.354l-.135.169-.228.059-.304-.017-.093-.16-.296-.094h-.186l-.177.076.008.152-.785.085-.034.253-.726.06-.168.296h-2.555l-.55-.335-.597-.358-.573-.692-.31-.573-.561-.418-.573-.12-.227-.06-.18-.62-1.253-.967-.143-.048-.192.072-1.659.763-1.875.968-.465.048-.478.441-2.054.813-1.301.513-2.794 1.36-.359.933-.31.955-2.245 2.149-.286.931-.287.382-.358-.215-.31-.644h-1.41l-.358-.335-.478.048-.095.31h-.812l-.692-.382-1.003-.358-1.481.263-1.099-.286-1.074-.311-.382-.454-.406-.453-.168.31-.119.239-.501-.096-.55-.215-.095-.525-.764.072-.12.5-.501.264h-1.242l-1.457-.215-.979.024-.382-.167-.43-.287-.31-.645-.669-.525-9.72-6.257-.605-.636-.614-.358-.954-.345-1.193-.38-1.457-.072-.836.024-.393-.21-.723-.002c-.157.055-.198.118-.27.182-.071.063-.173.127-.45.182l-2.343-.08V28.4h-.86l-.095.334-1.72-.071-1.026-.836-.048-1.314-1.6-.047-.12-.788-.955.143-.358.621.095.478-.43-.144-.525-.597-.812-1.122.31-.955.383-.693-.31-.406-1.744-.143.358-.383.024-.453-.239-.263-.525-.047-1.074.788-.168.239-.071-.072-.215-.358-.478-.024-.19.286-1.864.764-5.66 2.173-2.053 1.195-1.576 1.671-1.218 1.194-1.887 1.696-.024.19.43-.023.095.239.263.072.048 1.098.31-.096-.095.836-.263.024.096.382.19-.071.096.286h.502l.071.43h-.43l-.095.334.143.573.693-.023.167-.167.024-.24.454.025.048.453-.55.072V36.497l.621.071.263-.024.048-.31.358.549.048.645.43-.072.167-.19.406-.072.095.31.096.024.525.215.263.287-.024.597-.048.716-.286.144-.359.334-.167.358.096.836.239.62.286.216v2.005l.478.215.716.168.239.358v.43l.215.31.12 1.075.883.979.239-.072.238-.143.55.406.287 1.242.334 1.313.358.287.62-.096.049.86.215.19.238.359-.238.454-.454.167-.072.382.143.812 1.123 2.34.02.114z" transform="matrix(.4299 0 0 .4299 83.758 -9.322)"/><path style="opacity:1;fill:#b00;fill-opacity:1;stroke:none;stroke-width:.877665" d="m-183.045 61.385-.3.473-.43.263-.43.239-.119.788-.048.405-.668.478-.096.382.024.526.334.358-.071.382-.215.406-.454.024-.597-.024-.454.096-.143.453-.262.048h-.43l-.144.287.024.525-.86-.071-.238.047-.144.478-.071.454v.931l-.43.62-.406.598-.048.382-.477.143-.407.215-.286-.048.143.74-.31.335-.215.477-.573.072-.525.263-.383.334-.071.454-.024.907-.478.382.12.502.167.453-.358.263-.788.717-.072.406.048.931v.573l-.454-.048-.167.191.143.597.454.144.095 1.098.526.43.406-.024.286-.382.335-.072.071.311-.024.262-.454.12-.19.454.262.334.716.167.287-.024.12.31.549.216.096.955.143.048.023.596.072.24h.287l.286-.072-.048-.334.693-.67.215-.167-.072-.93-.382-.144v-.167l.884-.12.573.143.525-.047.215-.358h.645l.406-.31.31-.025.144-.382h.573l-.024.884.597.287.358.405.382.717-.238.071-.192-.19-.43-.072-.215.072-.023.477-.597.239-.335.024-.238-.191-.67.047-.095-.262-.12-.191-.38.119-.049.215h-.86l-.167.501.072.669.047.215.454.096.048.286-.597.525h-.096l-.167-.405-.048-.359-.286-.215h-.287l-.143.406-.716-.072-.454-.358-.358-.334.071-.597-.19-.143-.192.215.024.286-.167-.095-.024-.31-.358.119v.43l-.5-.048v.406l.525.31h.215l-.096.836-.716.12-.03-.033-.353.176-.119.334.191.263.143-.048-.19.239-.263.191-.143.096-.048 1.05.286.168.167.5.406.288.144.19v.168l.406-.143.19.19.072.168-.024.239-.358.143-.238.358.143.788-.192.048-.07-.215-.335-.12h-.287l-.358.478.31.215.191.286 3.99 2.25h79.768l-.307-.362-3.278-4.167v-28.88Z" transform="matrix(.4299 0 0 .4299 83.758 -9.322)"/><path style="opacity:1;fill:#fff;stroke:none;stroke-width:.355428" d="m-182.918 55.906.027.15-.287.549-.095.716.406.477.191.383-.287.405-.047.621.119 1.935-.154.243h69.963v-5.48zM-189.266 94.793l9.718 5.48h72.789l.048-.05.024-.776v-.31l.346-.036-.059-.251-.18-.012-.035-.537-.586-.621-.596-.884-1.7-2.003z" transform="matrix(.4299 0 0 .4299 83.758 -9.322)"/><path style="opacity:1;fill:#060;fill-opacity:1;stroke:none;stroke-width:.892434" d="m-179.548 100.273 13.696 7.722.828.27 13.274 7.42.066 1.225.169.372.135 1.115-.068.303-.304.389-.608.338-.303.32-.102.389.05.338.474.05-.034.152-.135.084.017.237.067.169.895-.102.304.102.287.405.034.372.101.574.17.118 7.598 5.42 6.281 4.526 2.854 2.145.828-.98.388.035.575.421.54-.101.304-.118-.17-.304-.303-.169.186-.169h.202l-.033-.287.303-.084v.591l.22-.017.608-1.672.506-.152-.016-.76.27.153.05-1.014.861-1.857.102-.118-.05-.592-1.115-.05-.068-.338.608-.05.203-.153.236-.033.017-.203-.524.034v-.388l.574.1.237.457.034.32h.422l.406-.556-.068-.355-.355-.068-.186-.202.034-.49.152-.017.034.439.372.101.472-.22.372-.91.49-1.52.162-.879-.395-.143-.298.095h-.215l-.024-.238-.179-.096-.048-.239.275-.107.19.12.096.167.287.059.406.048.35-1.456.625-1.08.05-.288-.151-.186v-.421l.202-.085.068.389-.034.185.253.135.304-.27.574-.405.574-.338.136-.473-.136-.574.034-.236.237-.034.371-.608.034-.574-.101-.27.878-.743-.102-.372-.405.237-.405.033v-.169l.44-.202-.071-.124-.55-.012.037-.286.195-.169.05-.388h.287l-.067-.659-.237-.202.101-.423.575-.743.929-.861 1.266-.692.841-.186.573.096.478.287.382.095.453-.406.502-.645.597-.334.645-.477.31-.311-.19-.43-.263-.358-.025-.215.383-.454.501-.334.096.382.238.143v.287l.24.263.453-.12.072-.19.238-.048.024-.765-.435-.164-.372-.118-.084-.372-.034-.98-.152-.286-.034-.473-.354-.135-.017-.338-.237-.118.203-.135.304.169-.067.169.219.169.186.726.574-.152.017-.676-.068-.658.27-.287.152.354-.202.355-.017.523.118.186.439-.017.186.068.101.118-.253.203-.338.135-.405.084-.135.422-.034.49.169.152.27.27.304-.169-.202-.22h-.215v-.202l.61-.036-.024-.155 1.074-.06.048-.191.549-.084-.286-.322-.132-.382-.836-.108-.191-.095.61-.55.919.227.203-.167.095-.489.824.334.25.024.156-.275 1.17-1.289 1.313-1.335z" transform="matrix(.4299 0 0 .4299 83.758 -9.322)"/><path style="fill:#fff;stroke:#fff;stroke-width:.264583px;stroke-linecap:butt;stroke-linejoin:miter;stroke-opacity:1" d="m177.195 230.62 30.108-52.15c-.11-.455-.231-2.072.531-3.566 2.254-4.524 5.77-8.428 9.376-12.318-.89 5.112-3.152 9.842-5.977 14.416-.974 1.504-1.842 1.748-2.72 2.113l-30.193 52.154z" transform="matrix(.4299 0 0 .4299 -63.802 -62.404)"/><path style="fill:#fff;stroke:#fff;stroke-width:.264583px;stroke-linecap:butt;stroke-linejoin:miter;stroke-opacity:1" d="m214.725 234.966-32.565-56.495c.11-.456.231-2.073-.532-3.567-2.253-4.524-5.77-8.428-9.375-12.318.89 5.112 3.152 9.842 5.977 14.416.974 1.504 1.842 1.748 2.72 2.113l32.65 56.548z" transform="matrix(.4299 0 0 .4299 -63.802 -62.404)"/><g transform="matrix(.4299 0 0 .4299 -63.802 -62.404)"><path style="fill:#b00;fill-opacity:1;stroke:#b00;stroke-width:.132292;stroke-linecap:butt;stroke-linejoin:miter;stroke-opacity:1" d="M198.214 169.917c-2.615-2.928-4.925-2.167-7.116 0-17.841 20.506-18.136 42.294 0 63.476 2.306 2.343 4.71 2.815 7.283 0 17.102-20.307 18.315-42.44-.167-63.476z"/><path style="fill:#000;stroke:#000;stroke-width:.132292;stroke-linecap:butt;stroke-linejoin:miter;stroke-opacity:1" d="M181.376 218.41c4.151-10.42 5.264-21.357 0-33.376-4.552 10.222-5.397 21.372 0 33.375zM207.977 218.41c4.152-10.42 5.264-21.357 0-33.376-4.551 10.222-5.396 21.372 0 33.375z"/><ellipse style="opacity:1;fill:#fff;fill-opacity:1;stroke:none;stroke-width:.136072" cx="194.752" cy="201.655" rx="2.783" ry="4.141"/><path style="fill:#fff;stroke:#fff;stroke-width:.264583px;stroke-linecap:butt;stroke-linejoin:miter;stroke-opacity:1" d="M194.138 205.696c-5.014 11.069-2.82 22.908 0 29.435zM195.376 205.696c5.015 11.069 2.821 22.908 0 29.435zM194.138 168.2c-5.014 11.068-2.82 22.907 0 29.434zM195.376 168.2c5.015 11.068 2.821 22.907 0 29.434z"/></g></svg>